<svg width="80" height="80" viewBox="0 0 80 80" fill="none" xmlns="http://www.w3.org/2000/svg">
<rect width="80" height="80" rx="10" fill="#D9D9D9"/>
<path d="M62.9915 26.1684L39.2444 49.9154C36.8796 52.2801 29.86 53.3754 28.2918 51.8072C26.7236 50.239 27.7939 43.2194 30.1587 40.8546L53.9308 17.0827C54.517 16.4431 55.2266 15.929 56.0172 15.5713C56.8075 15.2136 57.6623 15.0197 58.5298 15.0014C59.3971 14.9832 60.2593 15.1408 61.0641 15.465C61.8689 15.7891 62.5997 16.273 63.2123 16.8873C63.8249 17.5017 64.3068 18.2337 64.6286 19.0394C64.9505 19.8451 65.1061 20.7076 65.0854 21.575C65.0648 22.4423 64.8684 23.2966 64.5087 24.0861C64.1487 24.8755 63.6327 25.5839 62.9915 26.1684Z" stroke="#373737" stroke-width="5" stroke-linecap="round" stroke-linejoin="round"/>
<path d="M37.4029 20.1942H24.9569C22.3161 20.1942 19.7837 21.2432 17.9164 23.1105C16.0492 24.9778 15 27.5103 15 30.1511V55.0432C15 57.684 16.0492 60.2165 17.9164 62.0837C19.7837 63.9511 22.3161 65 24.9569 65H52.3382C57.8394 65 59.8058 60.5195 59.8058 55.0432V42.5971" stroke="#373737" stroke-width="5" stroke-linecap="round" stroke-linejoin="round"/>
</svg>
